HIERARCHY
ROOT ui
{
	 OFFSET 0 0 0
	 CHANNELS 3 XPosition YPosition Z Position
	 EndSite
	 {
	 OFFSET 0 -1 0
	 }
}
ROOT li
{
	 OFFSET 0 0 0
	 CHANNELS 3 XPosition YPosition Z Position
	 EndSite
	 {
	 OFFSET 0 -1 0
	 }
}
ROOT ul
{
	 OFFSET 0 0 0
	 CHANNELS 3 XPosition YPosition Z Position
	 EndSite
	 {
	 OFFSET 0 -1 0
	 }
}
ROOT ll
{
	 OFFSET 0 0 0
	 CHANNELS 3 XPosition YPosition Z Position
	 EndSite
	 {
	 OFFSET 0 -1 0
	 }
}
ROOT tt
{
	 OFFSET 0 0 0
	 CHANNELS 3 XPosition YPosition Z Position
	 EndSite
	 {
	 OFFSET 0 -1 0
	 }
}
ROOT tb
{
	 OFFSET 0 0 0
	 CHANNELS 3 XPosition YPosition Z Position
	 EndSite
	 {
	 OFFSET 0 -1 0
	 }
}
ROOT td
{
	 OFFSET 0 0 0
	 CHANNELS 3 XPosition YPosition Z Position
	 EndSite
	 {
	 OFFSET 0 -1 0
	 }
}
ROOT v
{
	 OFFSET 0 0 0
	 CHANNELS 3 XPosition YPosition Z Position
	 EndSite
	 {
	 OFFSET 0 -1 0
	 }
}
ROOT bn
{
	 OFFSET 0 0 0
	 CHANNELS 3 XPosition YPosition Z Position
	 EndSite
	 {
	 OFFSET 0 -1 0
	 }
}
MOTION
Frames: 32
Frame Time: 0.002
0.00399866795539856	-2.276110053062439E-4	0		0.48805679321289064	-2.30728857421875	0		-1.0480693359375	0.12866363525390626	0		-0.6869253540039062	-2.60848095703125	0		1.78157275390625	-0.5398084716796875	0		3.40089306640625	0.0282914981842041	0		4.7541572265625	0.15860255432128906	0		5.58527978515625	0.19478358459472656	0		-0.26862570190429685	5.88590234375	0		
0.02031517791748047	3.805469870567322E-4	0		0.4574926452636719	-2.3088955078125	0		-1.112783447265625	0.12849205017089843	0		-0.700326904296875	-2.60144287109375	0		1.8158128662109374	-0.5463626098632812	0		3.37779736328125	0.003763225078582764	0		4.7552568359375	0.146783935546875	0		5.58184619140625	0.18151454162597655	0		-0.27170223999023435	5.887794921875	0		
-0.005322315216064453	0.0016594229936599731	0		0.5068846435546875	-2.3167763671875	0		-1.0754539794921876	0.1276879653930664	0		-0.69300390625	-2.61473876953125	0		1.7772322998046874	-0.5437479858398437	0		3.379458251953125	0.02385204887390137	0		4.74459130859375	0.14716517639160157	0		5.58138623046875	0.18199331665039062	0		-0.27179843139648435	5.8866396484375	0		
-0.005935050010681152	0.0015418529510498047	0		0.4275771484375	-2.307607666015625	0		-1.1140711669921874	0.12809385681152344	0		-0.6934262084960937	-2.61490625	0		1.7766591796875	-0.54373583984375	0		3.401492919921875	0.0016196110248565673	0		4.7488408203125	0.139315185546875	0		5.58095849609375	0.18248458862304687	0		-0.2728394775390625	5.88650244140625	0		
0.01847964096069336	3.5105999559164046E-5	0		0.4582055053710937	-2.306177734375	0		-1.097743408203125	0.12163353729248047	0		-0.760637451171875	-2.604014892578125	0		1.7571502685546876	-0.542420654296875	0		3.38251171875	0.03904790878295898	0		4.75546826171875	0.15243443298339843	0		5.58350537109375	0.1967091522216797	0		-0.4071462097167969	5.8674677734375	0		
-0.003973155975341797	0.00427436113357544	0		0.4329325561523438	-2.3008603515625	0		-1.102003173828125	0.1385096435546875	0		-0.7239909057617188	-2.605755615234375	0		1.7787149658203125	-0.539747802734375	0		3.404501708984375	0.00782475185394287	0		4.74695556640625	0.15379098510742187	0		5.5831435546875	0.19720246887207032	0		-0.27476824951171874	5.886244140625	0		
0.017491844177246092	-1.6826699674129487E-4	0		0.5074099731445313	-2.31509912109375	0		-1.1156524658203124	0.12753837585449218	0		-0.72834228515625	-2.609842041015625	0		1.7752205810546875	-0.5436768188476563	0		3.4123583984375	0.02883333396911621	0		4.7464755859375	0.1540198516845703	0		5.59342431640625	0.1834467315673828	0		-0.27564483642578125	5.88612548828125	0		
-0.007911630153656006	0.0011299300193786622	0		0.45522695922851564	-2.309348876953125	0		-1.1160830078125	0.12737217712402343	0		-0.7055301513671876	-2.60634033203125	0		1.81279931640625	-0.5462399291992187	0		3.38876611328125	0.018329206466674804	0		4.75194921875	0.14815364074707033	0		5.57542431640625	0.20362893676757812	0		-0.27744537353515625	5.88703125	0		
-0.008288416862487793	0.0010461560487747192	0		0.478918701171875	-2.31477392578125	0		-1.110546142578125	0.12212474822998047	0		-0.7657782592773438	-2.608539794921875	0		1.755510986328125	-0.5423244018554687	0		3.37239013671875	0.018711894989013673	0		4.75053173828125	0.14639215087890625	0		5.5793203125	0.18490966796875	0		-0.27721682739257814	5.88591455078125	0		
-0.0036994531154632567	-0.004105713844299317	0		0.4298875732421875	-2.30406494140625	0		-1.0958577880859375	0.12375016021728516	0		-0.6821463623046875	-2.62195556640625	0		1.774193359375	-0.5435842895507812	0		3.40877392578125	2.7574199438095093E-4	0		4.74020654296875	0.14776309204101562	0		5.5820302734375	0.19909706115722656	0		-0.40926605224609375	5.863845703125	0		
0.020130020141601562	0.003458219051361084	0		0.48467813110351565	-2.30795068359375	0		-1.0920948486328126	0.1275583038330078	0		-0.7589684448242188	-2.600880859375	0		1.7580128173828125	-0.5383021850585937	0		3.4060517578125	0.037449398040771485	0		4.75299755859375	0.15377201843261717	0		5.58823681640625	0.19756791687011718	0		-0.27756002807617186	5.88472509765625	0		
-0.009162176132202148	8.462510108947754E-4	0		0.4565740051269531	-2.306552978515625	0		-1.0743074951171876	0.13016513061523438	0		-0.6932664794921874	-2.61398876953125	0		1.7737144775390625	-0.5435072631835938	0		3.35731591796875	0.006317617893218994	0		4.744755859375	0.15509808349609375	0		5.5787177734375	0.1862290496826172	0		-0.2791173095703125	5.88566796875	0		
0.015609165191650391	-5.837129950523376E-4	0		0.4783586730957031	-2.314912109375	0		-1.117580810546875	0.1267175521850586	0		-0.7303217163085938	-2.6125087890625	0		1.7735322265625	-0.5434634399414062	0		3.383208984375	0.013046202659606933	0		4.7504453125	0.14920529174804686	0		5.58918408203125	0.17240594482421875	0		-0.2796332397460938	5.88560498046875	0		
-0.009547609329223633	7.578709721565247E-4	0		0.45234564208984374	-2.311532958984375	0		-1.1177618408203125	0.12662366485595702	0		-0.69541845703125	-2.616115478515625	0		1.7733839111328125	-0.5434158935546874	0		3.383033447265625	0.013172539710998535	0		4.74026416015625	0.1495505828857422	0		5.57845458984375	0.18703858947753907	0		-0.28009613037109377	5.88555224609375	0		
0.015290642738342285	-6.517630219459534E-4	0		0.4273866271972656	-2.3061640625	0		-1.0928990478515626	0.1271629867553711	0		-0.76431298828125	-2.607132568359375	0		1.776325439453125	-0.5394108276367188	0		3.4021142578125	0.028007564544677736	0		4.7590810546875	0.14744978332519532	0		5.58477587890625	0.1871869354248047	0		-0.4128280029296875	5.8655126953125	0		
-0.006763927936553955	0.003659389019012451	0		0.45636431884765627	-2.306605712890625	0		-1.1048695068359375	0.13727490234375	0		-0.6923878173828125	-2.61227490234375	0		1.757248291015625	-0.5380693969726562	0		3.376741455078125	0.011511271476745605	0		4.7489580078125	0.14778280639648436	0		5.5846962890625	0.18755755615234376	0		-0.28087884521484374	5.8854755859375	0		
0.015075616836547852	-6.854550242424011E-4	0		0.4543139343261719	-2.3095703125	0		-1.1140770263671875	0.13035394287109375	0		-0.7303917236328125	-2.61274267578125	0		1.773094970703125	-0.5432532348632813	0		3.41186572265625	0.026103372573852538	0		4.749884765625	0.1499438171386719	0		5.5846640625	0.19310499572753906	0		-0.28121136474609376	5.88545068359375	0		
-0.009990882873535157	6.852710247039795E-4	0		0.47823812866210935	-2.31491943359375	0		-1.1182259521484375	0.12636710357666014	0		-0.6974572143554687	-2.618271484375	0		1.773031005859375	-0.5431925048828125	0		3.36658984375	0.013903718948364258	0		4.7397958984375	0.15026641845703126	0		5.58040380859375	0.20571733093261718	0		-0.2815162353515625	5.8854345703125	0		
-0.013129253387451172	-0.003268557071685791	0		0.45228875732421875	-2.311511962890625	0		-1.11830908203125	0.12632887268066406	0		-0.7323948974609376	-2.614770263671875	0		1.772971435546875	-0.543129150390625	0		3.376629638671875	0.021872121810913085	0		4.75459033203125	0.14220985412597656	0		5.5845234375	0.18860032653808595	0		-0.28180169677734374	5.88542578125	0		
-0.010148830413818359	6.927710175514221E-4	0		0.45635964965820314	-2.30655029296875	0		-1.0933802490234374	0.12692495727539063	0		-0.7293289184570313	-2.61083251953125	0		1.762881103515625	-0.5449140014648437	0		3.382279541015625	0.003902021884918213	0		4.73861279296875	0.14961146545410156	0		5.58447119140625	0.1889251708984375	0		-0.4134183349609375	5.8633876953125	0		
-0.0022634310722351074	-0.0014141230583190917	0		0.4334530029296875	-2.299180908203125	0		-1.099392578125	0.1319935760498047	0		-0.7143949584960938	-2.6150654296875	0		1.775902099609375	-0.5390426635742187	0		3.40565625	0.03467029190063477	0		4.75362744140625	0.15654310607910157	0		5.59154638671875	0.18897836303710938	0		-0.2803662414550781	5.88339794921875	0		
-0.010322810173034668	7.229650020599365E-4	0		0.480243408203125	-2.311850341796875	0		-1.0755189208984375	0.1296230010986328	0		-0.704263427734375	-2.6052177734375	0		1.7537847900390624	-0.5416461791992188	0		3.366256103515625	0.014368212699890137	0		4.75432421875	0.14268167114257813	0		5.58142626953125	0.17753134155273437	0		-0.28259197998046875	5.88543798828125	0		
-0.010419194221496581	7.45934009552002E-4	0		0.4542402648925781	-2.309427490234375	0		-1.1146143798828125	0.13019866943359376	0		-0.7063211059570312	-2.60718310546875	0		1.7726856689453125	-0.5428597412109375	0		3.393067138671875	0.00807831859588623	0		4.74934375	0.15090296936035155	0		5.57076953125	0.19550567626953125	0		-0.28284246826171877	5.88545361328125	0		
0.014462367057800293	-5.9757399559021E-4	0		0.4760888671875	-2.316714599609375	0		-1.11877734375	0.12625980377197266	0		-0.732474853515625	-2.61478466796875	0		1.753614990234375	-0.5415064086914062	0		3.382056640625	0.01435145664215088	0		4.739240234375	0.15119471740722656	0		5.57783203125	0.19552745056152343	0		-0.28210064697265624	5.88446044921875	0		
-0.010622529983520508	8.0657297372818E-4	0		0.42922042846679687	-2.30397509765625	0		-1.0938704833984374	0.12689704895019532	0		-0.6955389404296874	-2.616316650390625	0		1.7702255859375	-0.5616851196289062	0		3.397085693359375	0.02323491096496582	0		4.74810400390625	0.14919818115234376	0		5.5777294921875	0.19060383605957032	0		-0.4156291809082031	5.86546337890625	0		
0.014258291244506836	-5.267620086669922E-4	0		0.48208355712890627	-2.30971435546875	0		-1.1058250732421875	0.13708990478515626	0		-0.7624342651367187	-2.605301025390625	0		1.7564921875	-0.5374086303710938	0		3.381851806640625	0.01456138801574707	0		4.74902880859375	0.1513125	0		5.58410986328125	0.19581170654296876	0		-0.2825478515625	5.88451904296875	0		
-0.010822690010070801	8.848410248756409E-4	0		0.45402682495117186	-2.30925048828125	0		-1.115028564453125	0.13024671936035156	0		-0.6956444702148438	-2.61626318359375	0		1.772326904296875	-0.5425741577148437	0		3.40097314453125	0.029376523971557617	0		4.75380908203125	0.14336036682128905	0		5.5869677734375	0.20804949951171875	0		-0.2827450866699219	5.8845556640625	0		
0.014066004753112793	-4.399600028991699E-4	0		0.4778890075683594	-2.314553466796875	0		-1.119182861328125	0.12633563995361327	0		-0.7326825561523438	-2.614680908203125	0		1.753257568359375	-0.5412232666015625	0		3.37757080078125	0.008811914443969726	0		4.75962353515625	0.1373842315673828	0		5.5839755859375	0.19625552368164062	0		-0.28390682983398435	5.885611328125	0		
-0.011004191398620605	9.778259992599487E-4	0		0.44984466552734376	-2.313086181640625	0		-1.1133465576171875	0.12128340148925781	0		-0.6977896118164062	-2.61815771484375	0		1.7691002197265624	-0.5463916015625	0		3.367513671875	0.01104499912261963	0		4.743625	0.14372079467773438	0		5.5745380859375	0.179478515625	0		-0.2830743408203125	5.8846416015625	0		
0.01882305335998535	-0.005413715839385986	0		0.4538394775390625	-2.30909130859375	0		-1.0984002685546874	0.12310447692871093	0		-0.7558448486328125	-2.6172548828125	0		1.7508184814453125	-0.5600601196289062	0		3.408236083984375	-0.0024834699630737304	0		4.74354296875	0.14380668640136718	0		5.59095751953125	0.19115762329101563	0		-0.4145386352539063	5.86262841796875	0		
-0.008114944458007813	0.0040377888679504394	0		0.45784591674804687	-2.304095947265625	0		-1.0944158935546875	0.12709532928466796	0		-0.6907998657226563	-2.61016455078125	0		1.7727882080078126	-0.5573264770507812	0		3.4006357421875	0.029695066452026367	0		4.747556640625	0.14981483459472655	0		5.58377392578125	0.19153462219238282	0		-0.2823048095703125	5.88372900390625	0		
0.013755732536315918	-2.3049299418926238E-4	0		0.4557445068359375	-2.3060107421875	0		-1.1154368896484375	0.1304634552001953	0		-0.7668641967773437	-2.608984375	0		1.7529578857421875	-0.5409798583984375	0		3.373172119140625	0.003146796941757202	0		4.758517578125	0.15169960021972656	0		5.587919921875	0.1776224670410156	0		-0.28334689331054685	5.88480029296875	0		
